<?xml version="1.0" encoding="utf-8"?>
<!-- Generator: Adobe Illustrator 16.0.3, SVG Export Plug-In . SVG Version: 6.00 Build 0) -->
<!DOCTYPE svg PUBLIC "-//W3C//DTD SVG 1.1//EN" "http://www.w3.org/Graphics/SVG/1.1/DTD/svg11.dtd">
<svg version="1.1" id="Layer_1" xmlns="http://www.w3.org/2000/svg" xmlns:xlink="http://www.w3.org/1999/xlink" x="0px" y="0px"
         width="300px" height="300px" viewBox="106 106 300 300" enable-background="new 106 106 300 300" xml:space="preserve">
<path fill="#FFFFFF" d="M405.778,252.532l0.222-1.101c-24.702-4.939-50.052-4.989-65.388-4.352
        c2.52-9.077,3.277-19.521,3.277-31.169c0-16.705-6.276-30.068-16.465-40.236c1.78-5.747,4.159-18.511-2.375-34.85
        c0,0-11.526-3.66-37.598,13.79c-10.214-2.553-21.083-3.813-31.969-3.813c-11.977,0-24.079,1.525-35.366,4.621
        c-26.904-18.354-38.781-14.594-38.781-14.594c-7.752,19.387-2.959,33.742-1.503,37.307c-9.112,9.834-14.675,22.388-14.675,37.78
        c0,11.619,1.323,22.043,4.554,31.103c-15.466-0.563-39.891-0.346-63.712,4.417l0.219,1.101c23.964-4.792,48.542-4.959,63.915-4.377
        c0.711,1.875,1.505,3.695,2.395,5.453c-15.202,0.49-41.159,2.427-66.035,9.445l0.307,1.078c25.073-7.069,51.255-8.958,66.309-9.419
        c9.083,16.931,26.99,27.865,58.847,31.3c-4.521,3.038-9.134,8.203-11.003,16.942c-6.162,2.947-25.667,10.141-37.37-9.987
        c0,0-6.551-11.978-19.09-12.914c0,0-12.163-0.187-0.839,7.579c0,0,8.139,3.835,13.754,18.248c0,0,7.325,24.581,42.675,16.694v25.392
        c0,0-0.747,8.981-8.981,11.974c0,0-4.864,3.369,0.377,5.237c0,0,22.823,1.871,22.823-16.836v-27.688c0,0-0.905-10.98,4.489-14.797
        v45.479c0,0-0.373,10.85-5.986,14.967c0,0-3.744,6.732,4.489,4.864c0,0,15.714-2.244,16.463-20.579l0.356-46.024h3.778l0.358,46.024
        c0.747,18.335,16.463,20.579,16.463,20.579c8.23,1.868,4.489-4.864,4.489-4.864c-5.612-4.117-5.985-14.967-5.985-14.967v-45.086
        c5.391,4.197,4.488,14.404,4.488,14.404v27.688c0,18.707,22.824,16.835,22.824,16.835c5.237-1.868,0.376-5.236,0.376-5.236
        c-8.233-2.993-8.981-11.975-8.981-11.975v-36.294c0-14.153-5.959-21.648-11.787-25.604c33.974-3.369,50.278-14.34,57.79-31.384
        c14.881,0.409,41.662,2.222,67.279,9.448l0.304-1.078c-25.47-7.184-52.073-9.043-67.106-9.481c0.712-1.722,1.334-3.512,1.886-5.354
        c15.26-0.634,40.729-0.626,65.524,4.328L405.778,252.532z"/>
</svg>
