<?xml version="1.0" encoding="utf-8"?>
<!-- Generator: Adobe Illustrator 16.0.3, SVG Export Plug-In . SVG Version: 6.00 Build 0) -->
<!DOCTYPE svg PUBLIC "-//W3C//DTD SVG 1.1//EN" "http://www.w3.org/Graphics/SVG/1.1/DTD/svg11.dtd">
<svg version="1.1" id="Layer_1" xmlns="http://www.w3.org/2000/svg" xmlns:xlink="http://www.w3.org/1999/xlink" x="0px" y="0px"
         width="300px" height="300px" viewBox="106 106 300 300" enable-background="new 106 106 300 300" xml:space="preserve">
<path id="linkedin-circle-icon" fill="#FFFFFF" d="M248.639,548.278 M248.639-10.277 M174.125,404.023H112.81V205.917h61.316
        V404.023z M143.177,179.975c-20.025,0-36.261-16.367-36.261-36.554c0-20.188,16.235-36.555,36.261-36.555
        c20.024,0,36.258,16.367,36.258,36.555C179.435,163.607,163.201,179.975,143.177,179.975z M403.916,404.023h-61.019
        c0,0,0-75.472,0-103.993s-10.834-44.442-33.399-44.442c-24.532,0-37.356,16.583-37.356,44.442c0,30.51,0,103.993,0,103.993h-58.81
        V205.917h58.81v26.679c0,0,17.688-32.724,59.708-32.724c41.996,0,72.064,25.649,72.064,78.71
        C403.916,331.646,403.916,404.023,403.916,404.023z"/>
</svg>
