<?xml version="1.0" encoding="utf-8"?>
<!-- Generator: Adobe Illustrator 16.0.3, SVG Export Plug-In . SVG Version: 6.00 Build 0) -->
<!DOCTYPE svg PUBLIC "-//W3C//DTD SVG 1.1//EN" "http://www.w3.org/Graphics/SVG/1.1/DTD/svg11.dtd">
<svg version="1.1" id="Layer_1" xmlns="http://www.w3.org/2000/svg" xmlns:xlink="http://www.w3.org/1999/xlink" x="0px" y="0px"
         width="300px" height="300px" viewBox="0 0 300 300" enable-background="new 0 0 300 300" xml:space="preserve">
<path fill="#FFFFFF" d="M300,56.96c-11.036,4.896-22.901,8.203-35.35,9.691c12.706-7.617,22.468-19.679,27.062-34.052
        c-11.894,7.055-25.063,12.176-39.085,14.936C241.4,35.573,225.404,28.1,207.701,28.1c-33.988,0-61.549,27.557-61.549,61.547
        c0,4.824,0.544,9.521,1.593,14.026c-51.153-2.567-96.504-27.071-126.861-64.308c-5.297,9.089-8.333,19.662-8.333,30.942
        c0,21.354,10.865,40.192,27.381,51.229c-10.089-0.319-19.58-3.089-27.877-7.698c-0.006,0.256-0.006,0.514-0.006,0.774
        c0,29.82,21.215,54.696,49.372,60.35c-5.164,1.408-10.602,2.159-16.214,2.159c-3.966,0-7.822-0.387-11.581-1.104
        c7.833,24.451,30.562,42.248,57.497,42.743c-21.064,16.51-47.603,26.348-76.44,26.348c-4.968,0-9.867-0.291-14.682-0.861
        c27.239,17.464,59.591,27.656,94.349,27.656c113.21,0,175.118-93.786,175.118-175.121c0-2.668-0.059-5.322-0.179-7.964
        C281.314,80.143,291.748,69.302,300,56.96z"/>
</svg>
